# xmcd
#
# Track frame offsets:
#	150
#	21582
#	36860
#	54922
#	73082
#	86432
#	102924
#	119069
#	135878
#	153421
#	169354
#	186808
#	203590
#	222435
#	233605
#	250474
#	265428
#	278439
#	296069
#	307883
#
# Disc length: 4321 seconds
#
# Revision: 2
# Processed by: cddbd v1.5.2PL0 Copyright (c) Steve Scherf et al.
# Submitted via: EasyCDDAExtractor 11.5.0.1
#
DISCID=2410df14
DTITLE=Various Artist - NCT 044
DYEAR=2002
DGENRE=Country
TTITLE0=Keith Urban - Raining On Sunday
TTITLE1=Vince Gill - Next Big Thing
TTITLE2=Montgomery Gentry - Speed
TTITLE3=Faith Hill - When The Lights Go Down
TTITLE4=The Charlie Daniels Band ft. Travis Tritt - Southern Boy
TTITLE5=Tracy Byrd - Lately (Dreamin' 'Bout Babies)
TTITLE6=Deryl Dodd - She'll Have You Back
TTITLE7=Chris Cagle - What A Beautiful Day
TTITLE8=Martina McBride - Concrete Angel
TTITLE9=Diamond Rio - I Believe
TTITLE10=Alison Krauss and Union Station - New Favorite
TTITLE11=Eric Heatherly - Sometimes It's Just Your Time
TTITLE12=Alan Jackson - Let It Be Christmas
TTITLE13=LeeAnn Womack - Silent Night
TTITLE14=Aaron Tippin - It's Way Too Close To Christmas To Be This Far Fro
TTITLE15=The Charlie Daniels Band - Blue Christmas
TTITLE16=SheDaisy - Santa's Got A Brand New Bag
TTITLE17=Rascal Flatts - God Rest Ye Merry Gentlemen
TTITLE18=Clay Walker - Feliz Navidad
TTITLE19=Kevin Denney - White Christmas
EXTD=
EXTT0=
EXTT1=
EXTT2=
EXTT3=
EXTT4=
EXTT5=
EXTT6=
EXTT7=
EXTT8=
EXTT9=
EXTT10=
EXTT11=
EXTT12=
EXTT13=
EXTT14=
EXTT15=
EXTT16=
EXTT17=
EXTT18=
EXTT19=
PLAYORDER=
